<?xml version="1.0" standalone="no"?>
<!DOCTYPE svg PUBLIC "-//W3C//DTD SVG 20010904//EN"
 "http://www.w3.org/TR/2001/REC-SVG-20010904/DTD/svg10.dtd">
<svg version="1.0" xmlns="http://www.w3.org/2000/svg"
 width="800.000000pt" height="800.000000pt" viewBox="0 0 800.000000 800.000000"
 preserveAspectRatio="xMidYMid meet">
<metadata>
Created by potrace 1.11, written by Peter Selinger 2001-2013
</metadata>
<g transform="translate(0.000000,800.000000) scale(0.100000,-0.100000)"
fill="#000000" stroke="none">
<path d="M0 7989 c0 -5 5 -7 10 -4 5 3 10 8 10 11 0 2 -4 4 -10 4 -5 0 -10 -5
-10 -11z"/>
<path d="M7985 7990 c3 -5 8 -10 11 -10 2 0 4 5 4 10 0 6 -5 10 -11 10 -5 0
-7 -4 -4 -10z"/>
<path d="M6109 7733 c-6 -16 -12 -32 -13 -38 -2 -5 -8 -23 -15 -40 -6 -16 -16
-43 -22 -60 -6 -16 -15 -39 -20 -50 -11 -26 -70 -187 -73 -200 -1 -5 -10 -27
-19 -49 -9 -21 -17 -44 -17 -51 0 -25 -15 -24 -74 8 -110 60 -102 56 -211 100
-33 14 -76 28 -95 32 -19 4 -39 10 -45 13 -5 4 -14 7 -20 8 -5 1 -48 11 -95
22 -99 23 -198 41 -255 47 -22 2 -40 4 -40 5 0 5 -131 10 -270 9 -197 0 -265
-2 -265 -9 0 -3 -12 -6 -27 -6 -49 -2 -102 -11 -223 -36 -65 -14 -69 -15 -72
-17 -2 -2 -14 -5 -28 -8 -39 -7 -55 -11 -55 -13 0 -1 -7 -3 -15 -5 -26 -6
-175 -59 -180 -65 -3 -3 -12 -6 -20 -8 -59 -12 -349 -181 -433 -253 -16 -13
-47 -40 -70 -59 -63 -53 -226 -218 -277 -280 -25 -30 -48 -56 -52 -58 -5 -2
-8 -8 -8 -13 0 -5 -8 -18 -17 -30 -10 -11 -28 -33 -40 -47 -13 -15 -23 -32
-23 -39 0 -6 -3 -13 -8 -15 -15 -6 -83 -117 -154 -248 -17 -30 -33 -59 -36
-65 -4 -5 -7 -12 -7 -15 -1 -3 -18 -41 -39 -84 -20 -44 -46 -103 -58 -130 -11
-28 -26 -64 -33 -81 -7 -16 -25 -64 -39 -105 -15 -41 -29 -82 -33 -90 -3 -8
-7 -17 -8 -20 -2 -10 -57 -186 -71 -227 -7 -23 -16 -52 -18 -65 -3 -13 -35
-131 -71 -263 -36 -132 -67 -249 -70 -260 -8 -38 -14 -61 -55 -220 -24 -88
-44 -167 -45 -175 -2 -8 -4 -15 -5 -15 -2 0 -5 -11 -13 -50 -3 -11 -12 -47
-21 -80 -9 -33 -19 -70 -22 -82 -2 -12 -9 -34 -14 -48 -5 -14 -7 -25 -5 -25 2
0 0 -12 -6 -27 -6 -16 -12 -35 -14 -43 -2 -8 -15 -58 -30 -110 -15 -52 -29
-102 -31 -110 -2 -8 -17 -60 -34 -115 -18 -55 -33 -107 -35 -115 -2 -8 -4 -15
-4 -15 -2 0 -81 -231 -86 -250 -2 -11 -9 -29 -14 -40 -5 -11 -17 -40 -26 -65
-9 -25 -22 -56 -28 -70 -5 -14 -11 -29 -12 -35 -4 -17 -69 -170 -75 -175 -3
-3 -6 -11 -8 -18 -1 -8 -29 -69 -62 -138 -33 -68 -60 -126 -60 -129 0 -3 -5
-11 -10 -18 -6 -7 -39 -61 -73 -122 -81 -142 -91 -159 -97 -165 -3 -3 -23 -32
-45 -65 -22 -33 -42 -62 -45 -65 -3 -3 -21 -25 -40 -50 -109 -141 -250 -275
-374 -354 -60 -38 -222 -117 -248 -120 -3 -1 -9 -4 -13 -7 -5 -6 11 -14 100
-54 53 -23 145 -59 158 -61 4 -1 9 -3 12 -4 3 -1 10 -4 15 -5 6 -1 11 -3 13
-5 1 -1 9 -3 17 -5 8 -2 53 -16 100 -30 47 -15 92 -28 100 -30 32 -9 256 -67
270 -70 148 -34 333 -75 359 -80 19 -3 38 -8 42 -10 4 -3 24 -7 44 -10 21 -2
45 -7 54 -9 9 -3 34 -8 56 -11 22 -4 45 -8 50 -9 26 -7 83 -17 110 -20 17 -2
30 -5 30 -6 0 -2 63 -11 83 -13 6 0 12 -3 12 -6 0 -4 20 -6 45 -6 25 0 45 -2
45 -5 0 -3 10 -6 23 -6 12 -1 70 -9 127 -18 136 -20 191 -26 325 -32 61 -2
116 -6 123 -9 6 -2 12 1 12 8 0 7 3 8 8 2 4 -5 21 -10 37 -10 17 0 33 5 37 10
5 6 8 5 8 -2 0 -7 6 -11 13 -8 6 2 77 6 157 9 80 3 157 8 172 11 l28 5 -6 -57
c-3 -32 -7 -83 -10 -113 -8 -88 -12 -135 -14 -135 -1 0 -3 -22 -5 -50 -2 -27
-7 -77 -10 -110 -4 -33 -8 -76 -9 -95 -9 -94 -17 -178 -21 -210 -2 -19 -7 -64
-10 -100 -3 -36 -8 -82 -11 -102 -5 -37 -4 -38 28 -39 47 -1 112 2 117 6 2 2
4 17 6 32 4 44 17 185 20 213 1 14 6 57 9 95 4 39 9 86 11 105 3 19 7 60 10
90 3 30 8 82 11 115 10 98 14 138 18 180 13 138 18 181 23 185 2 2 21 5 41 6
49 2 108 13 155 29 21 7 37 9 37 3 0 -5 6 -6 13 -1 6 4 17 8 23 9 6 1 20 5 31
8 15 5 19 1 21 -20 1 -14 8 -49 16 -77 8 -29 17 -65 20 -82 3 -16 7 -39 10
-50 4 -19 39 -177 66 -305 7 -30 15 -62 17 -70 3 -8 7 -24 9 -35 5 -30 12 -60
14 -60 1 0 3 -9 5 -20 1 -11 5 -31 8 -45 3 -14 13 -59 22 -100 9 -41 19 -84
21 -95 3 -11 8 -33 10 -49 3 -16 9 -39 14 -50 8 -21 15 -22 143 -17 17 1 17
24 0 71 -3 8 -7 26 -9 40 -2 21 -11 60 -39 180 -2 8 -10 43 -18 78 -9 34 -16
65 -16 67 -1 3 -1 6 -2 8 0 1 -2 9 -4 18 -2 15 -28 127 -41 181 -14 59 -26
124 -26 135 0 5 -4 14 -10 21 -6 6 -8 12 -5 12 3 0 1 17 -4 38 -5 20 -12 48
-15 62 -3 14 -14 64 -25 112 -10 48 -19 92 -19 97 0 5 15 13 33 16 35 8 107
31 147 48 14 6 27 11 30 12 3 1 22 9 44 18 21 9 40 17 41 17 2 0 34 14 72 32
37 17 75 32 83 34 8 2 16 8 18 13 2 6 9 11 16 11 17 0 130 60 138 73 4 7 8 8
8 4 0 -5 12 0 28 10 15 10 44 28 65 38 20 11 37 24 37 29 0 5 3 7 6 3 5 -5
143 84 185 120 9 7 19 10 22 6 4 -3 7 -2 7 4 0 5 22 25 50 44 27 19 50 37 50
42 0 4 4 7 9 7 5 0 24 12 41 28 18 15 69 58 114 96 86 73 416 404 416 417 0 4
16 24 35 43 19 20 35 39 35 42 0 3 11 16 25 30 14 14 25 29 25 33 0 5 10 19
23 32 26 27 53 64 122 164 27 39 52 72 56 75 4 3 9 12 11 20 2 8 13 26 26 40
12 13 22 28 22 32 0 4 20 39 45 77 25 38 45 74 45 80 0 6 5 11 11 11 5 0 8 4
5 9 -3 5 1 14 9 21 8 7 15 18 15 25 0 8 3 15 8 17 10 4 42 67 42 83 0 7 4 15
9 17 7 3 70 128 114 228 8 19 27 61 41 92 14 31 26 63 26 70 0 8 4 18 9 23 10
12 36 87 33 98 -1 4 3 7 8 7 5 0 9 3 9 8 -1 4 0 10 1 15 1 4 3 10 4 15 1 4 17
52 35 107 18 55 34 107 36 115 2 8 10 41 18 72 8 31 13 59 10 61 -2 3 3 29 12
60 18 62 16 55 50 205 14 62 27 128 30 145 3 18 8 43 10 57 10 48 13 65 20
120 3 30 8 66 10 80 25 160 35 512 19 690 -7 92 -11 125 -14 125 -1 0 -4 14
-5 30 -5 52 -39 210 -53 245 -3 8 -6 23 -7 33 -1 10 -7 28 -13 40 -5 12 -20
51 -32 87 -30 87 -52 136 -115 261 -40 80 -51 109 -42 118 6 6 16 11 23 11 7
0 14 4 16 8 2 5 34 26 73 48 38 21 77 44 86 49 18 11 158 92 199 116 14 8 27
16 30 19 3 3 21 14 40 24 87 47 191 109 195 115 2 4 -1 8 -8 8 -16 1 -139 13
-202 20 -86 9 -168 15 -212 17 -24 0 -43 4 -43 8 0 3 -19 6 -42 6 -24 0 -45 1
-48 2 -6 1 -55 6 -150 14 -164 15 -179 18 -184 47 -2 15 -53 174 -63 199 -3 8
-7 21 -9 27 -1 7 -12 43 -24 80 -12 38 -23 73 -25 78 -1 6 -7 23 -14 38 -6 16
-9 33 -5 38 3 5 0 9 -5 9 -6 0 -10 3 -9 8 0 4 -1 14 -4 22 -4 8 -18 54 -34
103 -15 48 -29 87 -31 87 -2 0 -8 -12 -14 -27z"/>
<path d="M0 10 c0 -5 5 -10 11 -10 5 0 7 5 4 10 -3 6 -8 10 -11 10 -2 0 -4 -4
-4 -10z"/>
<path d="M7985 10 c3 -5 8 -10 11 -10 2 0 4 5 4 10 0 6 -5 10 -11 10 -5 0 -7
-4 -4 -10z"/>
</g>
</svg>
